<svg xmlns="http://www.w3.org/2000/svg" viewBox="0 0 927 138.95"><defs><style>.cls-1{fill:#b1514b;}.cls-2{fill:#d25a59;}</style></defs><title>Ресурс 1</title><g id="Слой_2" data-name="Слой 2"><g id="Слой_1-2" data-name="Слой 1"><g id="_cb2029ff" data-name="#cb2029ff"><path class="cls-1" d="M59.89,0q3.22,1.79,6.36,3.75c-.18,10.86,0,21.73-.09,32.6-2.09-1-4.14-2.1-6.13-3.28-4.2,2.19-8.22,4.69-12.34,7q-.31,3.4-.61,6.81c-1.81-1-3.6-2-5.43-2.91a142.31,142.31,0,0,0-12.41,7.09c.28,7,.1,14.08.12,21.12-2.35-.69-4.31-4.28-6.78-3.47C19.16,71,15.46,72.88,12,75.07c-1.44.71-.69,2.61-.91,3.86.12,8.11,0,16.23.08,24.35A58,58,0,0,1,0,71.8V67.44a57.78,57.78,0,0,1,16.5-38A57.17,57.17,0,0,1,60,12.47C60.08,8.31,60,4.15,59.89,0Z"/><path class="cls-1" d="M364.31,24.2a57.35,57.35,0,0,1,46.24-2.58C424.6,26.9,435.88,39.26,439.15,54Q427.57,54,416,54a25.17,25.17,0,0,0-11.75-14.23c-10.37-5.65-24.19-4.4-33.21,3.28-6.13,5.12-9.78,12.7-11.22,20.45-2.55,13.47.91,28.83,11.53,38.08a29.49,29.49,0,0,0,33.59,3.29c5.91-3.39,9.87-9.32,12.13-15.63,7.95,0,15.91,0,23.87,0-4.05,13.12-12.67,25.22-25,31.61s-27.35,7.57-40.86,4.21A49.2,49.2,0,0,1,343,99a62.24,62.24,0,0,1-3.59-43.92A50.83,50.83,0,0,1,364.31,24.2Z"/><path class="cls-1" d="M142,124q19.94-51.51,39.86-103c6.73,0,13.45,0,20.18,0q18.9,51.49,37.74,103c-7.36,0-14.72-.07-22.08.06-2.8-7.63-5.37-15.34-8-23-12.61-.07-25.22,0-37.82,0-2.71,7.65-5.45,15.29-8.09,23-7.25.06-14.51,0-21.77,0m45.72-69.32C184.21,65,180.52,75.33,177,85.71q13.68,0,27.36,0c-4.5-13.63-9.42-27.13-13.36-40.94C189.35,47.85,188.91,51.37,187.72,54.63Z"/><path class="cls-1" d="M249,21h21.5c0,15.45-.05,30.91,0,46.36,14-15.29,27.46-31,41.32-46.4,8.77.09,17.54,0,26.32.05-15.45,16.65-31,33.19-46.41,49.87q24,26.53,47.91,53.12H312.21c-13.91-15.74-27.72-31.56-41.69-47.24,0,15.72-.08,31.45,0,47.17-7.18.15-14.37,0-21.55.07Z"/><path class="cls-1" d="M495.25,20.89h62.87c0,6.26.09,12.52-.07,18.78-14-.07-28,0-42,0V124c-6.92,0-13.84,0-20.76,0Q495.27,72.42,495.25,20.89Z"/><path class="cls-1" d="M569,21c11.33,0,22.67,0,34,0,9.86.18,20.29,2.46,27.89,9.12,6,5.18,9.24,13,9.72,20.82.56,8.5-.85,17.64-6.24,24.51-4.89,6.34-12.55,9.89-20.28,11.33-7.76,1.61-15.72,1.11-23.59,1.19,0,12,0,24,0,36-7.18.09-14.36,0-21.53,0V21m21.46,17.37c.11,10.8,0,21.61.09,32.41,8-.4,17.41,1.49,24-4.27,7.3-7.32,5.7-22.48-4.38-26.59C604,37.3,597,38.51,590.46,38.32Z"/><path class="cls-1" d="M644,21h23.09l.53.36c5.14,10.15,10.42,20.22,15.62,30.34,3.27,6.43,6.84,12.73,9.33,19.52,6.08-16.9,13.44-33.3,19.81-50.09,7.59-.29,15.19-.06,22.79-.13Q717.11,61.49,699,102c-3.49,7.55-8.12,15.1-15.41,19.5-6.86,4.15-15.49,4.24-23,1.93.09-5.9,0-11.8.05-17.7,4.58.89,10,2,14-1,4-3.35,5.62-8.47,7.77-13Q663.28,56.3,644,21Z"/><path class="cls-1" d="M743,20.89h82V124H804q0-42.15,0-84.31H764q0,42.15,0,84.31H743Z"/><path class="cls-1" d="M845,20.89h82V124H906V39.64H866q0,42.15,0,84.31H845Z"/><path class="cls-1" d="M78.31,56.15c2-1,4-2,6.07-2.94.33,25-.06,50,.2,75l-6.17,3.75C78.16,106.68,78.35,81.41,78.31,56.15Z"/></g><g id="_e5343dff" data-name="#e5343dff"><path class="cls-2" d="M78.29,10.61c2.12,1.21,4.23,2.46,6.3,3.77.23,1.89-1.14,4.75,1.08,5.81a57.12,57.12,0,0,1,11,90.28c0-16.83-.08-33.67,0-50.5-3.93-2.35-8-4.48-11.82-7l-.55.25c-2.07.89-4.08,1.89-6.07,2.94C78.35,41,78.38,25.79,78.29,10.61Z"/><path class="cls-2" d="M60,33.07c2,1.18,4,2.26,6.13,3.28q0,48.29,0,96.58c0,2-.22,4-.35,6h-.37a21.52,21.52,0,0,0-5.31-3.42C60,101.38,60.11,67.22,60,33.07Z"/><path class="cls-2" d="M47.08,46.9q.3-3.4.61-6.81c.14,29.43-.11,58.87.09,88.3-2-1.2-4.08-2.4-6.13-3.58,0-26.94-.08-53.88,0-80.82C43.48,44.92,45.27,45.93,47.08,46.9Z"/><path class="cls-2" d="M22.58,68.73c2.47-.81,4.43,2.78,6.78,3.47,0,15.2-.08,30.4,0,45.6-2.09-1.24-4.17-2.5-6.24-3.76.27-13.36,0-26.73.15-40.09A16.52,16.52,0,0,0,22.58,68.73Z"/></g></g></g></svg>